# xmcd
#
# Track frame offsets:
#	150
#	14320
#	25307
#	38563
#	53127
#	68157
#	78993
#	88914
#	102445
#	122618
#	131382
#	141533
#	162595
#	174158
#	187087
#	204870
#	212991
#
# Disc length: 3000 seconds
#
# Revision: 0
# Processed by: cddbd v1.5.2PL0 Copyright (c) Steve Scherf et al.
# Submitted via: EasyCDDAExtractor 16.0.6.1
#
DISCID=ed0bb611
DTITLE=Συλλογικός δίσκος - Να τα πούμε;-Εστουδιαντίνα Νέας Ιωνίας
DYEAR=2009
DGENRE=Κάλαντα
TTITLE0=Νταλάρας Γιώργος - Αρχιμηνιά κι αρχιχρονιά [πρωτοχρονιάς πανελλήνιο]
TTITLE1=Αηδονίδης Χρόνης-Καραντζή Νεκταρία - Σαράντα μέρες, σαράντα νύχτες [Χρ
TTITLE1=ιστουγέννων Θράκης]
TTITLE2=Τερζής Πασχάλης - Χριστούγεννα, πρωτούγεννα [Χριστουγέννων Μακεδονίας]
TTITLE3=Μαχαιρίτσας Λαυρέντης - Σήμερα τα Φώτα κι ο φωτισμός [Φώτων Πηλίου]
TTITLE4=Στρατηγού Ασπασία-Μέρμηγκας Θοδωρής - Για σένα κόρη έμορφη [Χριστουγέν
TTITLE4=νων Ικαρίας]
TTITLE5=Καζούλλης Βασίλης-Καραντζή Νεκταρία - Καλησπερώ σ' αφέντη μου [Πρωτοχρ
TTITLE5=ονιάς Ρόδου]
TTITLE6=Τσέρτος Μπάμπης - Χριστούγεννα, πρωτούγεννα [Χριστουγέννων Πελοποννήσο
TTITLE6=υ]
TTITLE7=Γαϊτάνος Πέτρος - Καλημερά και πάντα καλημέρα [Χριστουγέννων Αιγίνης]
TTITLE8=Σίκκης Χρήστος-Ολυμπίου Δέσποινα - Κάλαντα Χριστουγέννων [Χριστουγέννω
TTITLE8=ν Κύπρου]
TTITLE9=Encardia - Στρίνα [Ελληνόφωνης Κάτω Ιταλίας]
TTITLE10=Ανδρεάτος Γεράσιμος - Καλήν εσπέραν άρχοντες [Χριστουγέννων Κεφαλονιά
TTITLE10=ς]
TTITLE11=Κουλλιά Καίτη-Μέρμηγκας Θοδωρής - Καλημέρα πάντες ω αδελφοί [Φώτων Πά
TTITLE11=τμου]
TTITLE12=Ζουγανέλης Γιάννης - Σήμερα είναι αρχιμηνιά [Πρωτοχρονιάς Μυκόνου]
TTITLE13=Κετιμέ Αρετή - Ελάτε 'δώ γειτόνισσες [Χριστουγέννων Ηπείρου]
TTITLE14=Τσακνής Διονύσης - Άγιος Βασίλης έρχεται [Πρωτοχρονιάς Θεσσαλομακεδον
TTITLE14=ίας]
TTITLE15=Παπαδοπούλου Πίτσα - Χριστός γεννέθεν [Χριστουγέννων Κερασούντος]
TTITLE16=Γαργανουράκης Χαράλαμπος - Ταχιά-ταχιά 'ν' αρχιμηνιά [Πρωτοχρονιάς Κρ
TTITLE16=ήτης]
EXTD=
EXTT0=
EXTT1=
EXTT2=
EXTT3=
EXTT4=
EXTT5=
EXTT6=
EXTT7=
EXTT8=
EXTT9=
EXTT10=
EXTT11=
EXTT12=
EXTT13=
EXTT14=
EXTT15=
EXTT16=
PLAYORDER=
